{
    "asset" : {
        "generator" : "Khronos glTF Blender I/O v1.3.48",
        "version" : "2.0"
    },
    "scene" : 0,
    "scenes" : [
        {
            "name" : "Scene",
            "nodes" : [
                0,
                1,
                2,
                3,
                4
            ]
        }
    ],
    "nodes" : [
        {
            "mesh" : 0,
            "name" : "Cylinder.001",
            "rotation" : [
                0,
                0,
                -0.7071067094802856,
                0.7071068286895752
            ],
            "scale" : [
                0.44460004568099976,
                0.44460004568099976,
                0.44460004568099976
            ],
            "translation" : [
                -4.069033622741699,
                0.003257960081100464,
                -0.00031910836696624756
            ]
        },
        {
            "name" : "Sun",
            "translation" : [
                1.477658748626709,
                3.398681402206421,
                -0.3813275694847107
            ]
        },
        {
            "mesh" : 1,
            "name" : "Cylinder",
            "scale" : [
                0.3978259563446045,
                0.3978259563446045,
                0.3978259563446045
            ],
            "translation" : [
                1.4828661680221558,
                0,
                0
            ]
        },
        {
            "name" : "Lamp",
            "rotation" : [
                0.16907575726509094,
                0.7558803558349609,
                -0.27217137813568115,
                0.570947527885437
            ],
            "translation" : [
                4.076245307922363,
                5.903861999511719,
                -1.0054539442062378
            ]
        },
        {
            "name" : "Camera",
            "rotation" : [
                0.48170700669288635,
                0.3342514932155609,
                -0.21292176842689514,
                0.7816000580787659
            ],
            "translation" : [
                7.481131553649902,
                5.34366512298584,
                6.5076398849487305
            ]
        }
    ],
    "materials" : [
        {
            "doubleSided" : true,
            "name" : "Material.002",
            "pbrMetallicRoughness" : {}
        },
        {
            "doubleSided" : true,
            "name" : "Material.001",
            "pbrMetallicRoughness" : {}
        }
    ],
    "meshes" : [
        {
            "name" : "Cylinder.002",
            "primitives" : [
                {
                    "attributes" : {
                        "POSITION" : 0,
                        "NORMAL" : 1,
                        "TEXCOORD_0" : 2
                    },
                    "indices" : 3,
                    "material" : 0
                }
            ]
        },
        {
            "name" : "Cylinder.001",
            "primitives" : [
                {
                    "attributes" : {
                        "POSITION" : 4,
                        "NORMAL" : 5,
                        "TEXCOORD_0" : 6
                    },
                    "indices" : 7,
                    "material" : 1
                }
            ]
        }
    ],
    "accessors" : [
        {
            "bufferView" : 0,
            "componentType" : 5126,
            "count" : 630,
            "max" : [
                0.5989725589752197,
                7.593005180358887,
                0.589110791683197
            ],
            "min" : [
                -0.5989727973937988,
                -1.2037463188171387,
                -0.602272093296051
            ],
            "type" : "VEC3"
        },
        {
            "bufferView" : 1,
            "componentType" : 5126,
            "count" : 630,
            "type" : "VEC3"
        },
        {
            "bufferView" : 2,
            "componentType" : 5126,
            "count" : 630,
            "type" : "VEC2"
        },
        {
            "bufferView" : 3,
            "componentType" : 5123,
            "count" : 978,
            "type" : "SCALAR"
        },
        {
            "bufferView" : 4,
            "componentType" : 5126,
            "count" : 2040,
            "max" : [
                1.1811182498931885,
                1.062092661857605,
                1.0446057319641113
            ],
            "min" : [
                -11.298501014709473,
                -1.2419214248657227,
                -1.0679428577423096
            ],
            "type" : "VEC3"
        },
        {
            "bufferView" : 5,
            "componentType" : 5126,
            "count" : 2040,
            "type" : "VEC3"
        },
        {
            "bufferView" : 6,
            "componentType" : 5126,
            "count" : 2040,
            "type" : "VEC2"
        },
        {
            "bufferView" : 7,
            "componentType" : 5123,
            "count" : 3060,
            "type" : "SCALAR"
        }
    ],
    "bufferViews" : [
        {
            "buffer" : 0,
            "byteLength" : 7560,
            "byteOffset" : 0
        },
        {
            "buffer" : 0,
            "byteLength" : 7560,
            "byteOffset" : 7560
        },
        {
            "buffer" : 0,
            "byteLength" : 5040,
            "byteOffset" : 15120
        },
        {
            "buffer" : 0,
            "byteLength" : 1956,
            "byteOffset" : 20160
        },
        {
            "buffer" : 0,
            "byteLength" : 24480,
            "byteOffset" : 22116
        },
        {
            "buffer" : 0,
            "byteLength" : 24480,
            "byteOffset" : 46596
        },
        {
            "buffer" : 0,
            "byteLength" : 16320,
            "byteOffset" : 71076
        },
        {
            "buffer" : 0,
            "byteLength" : 6120,
            "byteOffset" : 87396
        }
    ],
    "buffers" : [
        {
            "byteLength" : 93516,
            "uri" : "RocketLauncher.bin"
        }
    ]
}
