{
    "asset" : {
        "generator" : "Khronos glTF Blender I/O v1.6.16",
        "version" : "2.0"
    },
    "scene" : 0,
    "scenes" : [
        {
            "name" : "Scene",
            "nodes" : [
                2
            ]
        }
    ],
    "nodes" : [
        {
            "mesh" : 0,
            "name" : "Cube",
            "scale" : [
                0.7814152836799622,
                0.7814152836799622,
                0.7814152836799622
            ],
            "translation" : [
                7.775532867526636e-05,
                -0.47119030356407166,
                0.2437964826822281
            ]
        },
        {
            "mesh" : 1,
            "name" : "Cube.002",
            "scale" : [
                0.06840773671865463,
                0.06840773671865463,
                0.06840773671865463
            ],
            "translation" : [
                0.023990202695131302,
                1.9831798076629639,
                -1.2952930927276611
            ]
        },
        {
            "children" : [
                0,
                1
            ],
            "mesh" : 2,
            "name" : "Cube.001",
            "scale" : [
                0.2710335850715637,
                0.2710335850715637,
                0.2710335850715637
            ]
        }
    ],
    "materials" : [
        {
            "doubleSided" : true,
            "name" : "Material.003",
            "pbrMetallicRoughness" : {}
        },
        {
            "doubleSided" : true,
            "name" : "Material.002",
            "pbrMetallicRoughness" : {}
        },
        {
            "doubleSided" : true,
            "name" : "Material.001",
            "pbrMetallicRoughness" : {}
        }
    ],
    "meshes" : [
        {
            "name" : "Cube.001",
            "primitives" : [
                {
                    "attributes" : {
                        "POSITION" : 0,
                        "NORMAL" : 1
                    },
                    "indices" : 2,
                    "material" : 0
                }
            ]
        },
        {
            "name" : "Cube.003",
            "primitives" : [
                {
                    "attributes" : {
                        "POSITION" : 3,
                        "NORMAL" : 4
                    },
                    "indices" : 5,
                    "material" : 1
                }
            ]
        },
        {
            "name" : "Cube.002",
            "primitives" : [
                {
                    "attributes" : {
                        "POSITION" : 6,
                        "NORMAL" : 7
                    },
                    "indices" : 8,
                    "material" : 2
                }
            ]
        }
    ],
    "accessors" : [
        {
            "bufferView" : 0,
            "componentType" : 5126,
            "count" : 24,
            "max" : [
                0.596617579460144,
                1,
                1
            ],
            "min" : [
                -0.341668963432312,
                -4.785811901092529,
                -1
            ],
            "type" : "VEC3"
        },
        {
            "bufferView" : 1,
            "componentType" : 5126,
            "count" : 24,
            "type" : "VEC3"
        },
        {
            "bufferView" : 2,
            "componentType" : 5123,
            "count" : 36,
            "type" : "SCALAR"
        },
        {
            "bufferView" : 3,
            "componentType" : 5126,
            "count" : 88,
            "max" : [
                1.0943715572357178,
                3.7051050662994385,
                1
            ],
            "min" : [
                -1,
                -8.125948905944824,
                -3.078453540802002
            ],
            "type" : "VEC3"
        },
        {
            "bufferView" : 4,
            "componentType" : 5126,
            "count" : 88,
            "type" : "VEC3"
        },
        {
            "bufferView" : 5,
            "componentType" : 5123,
            "count" : 132,
            "type" : "SCALAR"
        },
        {
            "bufferView" : 6,
            "componentType" : 5126,
            "count" : 2219,
            "max" : [
                0.731764018535614,
                3.8482797145843506,
                4.337644577026367
            ],
            "min" : [
                -0.7316084504127502,
                -1.242433786392212,
                -8.300433158874512
            ],
            "type" : "VEC3"
        },
        {
            "bufferView" : 7,
            "componentType" : 5126,
            "count" : 2219,
            "type" : "VEC3"
        },
        {
            "bufferView" : 8,
            "componentType" : 5123,
            "count" : 3963,
            "type" : "SCALAR"
        }
    ],
    "bufferViews" : [
        {
            "buffer" : 0,
            "byteLength" : 288,
            "byteOffset" : 0
        },
        {
            "buffer" : 0,
            "byteLength" : 288,
            "byteOffset" : 288
        },
        {
            "buffer" : 0,
            "byteLength" : 72,
            "byteOffset" : 576
        },
        {
            "buffer" : 0,
            "byteLength" : 1056,
            "byteOffset" : 648
        },
        {
            "buffer" : 0,
            "byteLength" : 1056,
            "byteOffset" : 1704
        },
        {
            "buffer" : 0,
            "byteLength" : 264,
            "byteOffset" : 2760
        },
        {
            "buffer" : 0,
            "byteLength" : 26628,
            "byteOffset" : 3024
        },
        {
            "buffer" : 0,
            "byteLength" : 26628,
            "byteOffset" : 29652
        },
        {
            "buffer" : 0,
            "byteLength" : 7926,
            "byteOffset" : 56280
        }
    ],
    "buffers" : [
        {
            "byteLength" : 64208,
            "uri" : "uzi.bin"
        }
    ]
}
